<svg width="760" height="220" viewBox="0 0 760 220" fill="none" xmlns="http://www.w3.org/2000/svg" role="img" aria-labelledby="title desc">
  <title id="title">TravelAI smart travel logo</title>
  <desc id="desc">A smart travel logo with a map pin, route line, compass star, and TravelAI wordmark.</desc>
  <defs>
    <linearGradient id="pinGradient" x1="66" y1="35" x2="169" y2="178" gradientUnits="userSpaceOnUse">
      <stop stop-color="#18A7B8"/>
      <stop offset="0.62" stop-color="#2355D6"/>
      <stop offset="1" stop-color="#7146D9"/>
    </linearGradient>
    <linearGradient id="sunGradient" x1="120" y1="72" x2="163" y2="118" gradientUnits="userSpaceOnUse">
      <stop stop-color="#FFD166"/>
      <stop offset="1" stop-color="#F97316"/>
    </linearGradient>
    <filter id="softShadow" x="22" y="16" width="190" height="196" filterUnits="userSpaceOnUse" color-interpolation-filters="sRGB">
      <feFlood flood-opacity="0" result="BackgroundImageFix"/>
      <feColorMatrix in="SourceAlpha" type="matrix" values="0 0 0 0 0 0 0 0 0 0 0 0 0 0 0 0 0 0 127 0" result="hardAlpha"/>
      <feOffset dy="10"/>
      <feGaussianBlur stdDeviation="12"/>
      <feComposite in2="hardAlpha" operator="out"/>
      <feColorMatrix type="matrix" values="0 0 0 0 0.06 0 0 0 0 0.12 0 0 0 0 0.25 0 0 0 0.18 0"/>
      <feBlend mode="normal" in2="BackgroundImageFix" result="effect1_dropShadow"/>
      <feBlend mode="normal" in="SourceGraphic" in2="effect1_dropShadow" result="shape"/>
    </filter>
  </defs>

  <g filter="url(#softShadow)">
    <path d="M116 30C77.3 30 46 61.3 46 100C46 151.4 116 192 116 192C116 192 186 151.4 186 100C186 61.3 154.7 30 116 30Z" fill="url(#pinGradient)"/>
    <path d="M116 48C87.8 48 65 70.8 65 99C65 127.2 87.8 150 116 150C144.2 150 167 127.2 167 99C167 70.8 144.2 48 116 48Z" fill="white" fill-opacity="0.94"/>
    <path d="M82 119C98.8 92.9 124.1 79 157 75" stroke="#18A7B8" stroke-width="8" stroke-linecap="round"/>
    <path d="M82 119C105.2 118.5 123.1 105 140 92" stroke="#2355D6" stroke-width="8" stroke-linecap="round"/>
    <circle cx="82" cy="119" r="8" fill="#14B8A6"/>
    <circle cx="140" cy="92" r="8" fill="#2355D6"/>
    <circle cx="157" cy="75" r="8" fill="#F97316"/>
    <path d="M124.1 63.8L132.1 85.9L154.2 93.9L132.1 101.9L124.1 124L116.1 101.9L94 93.9L116.1 85.9L124.1 63.8Z" fill="url(#sunGradient)"/>
    <circle cx="116" cy="99" r="18" fill="#0F172A"/>
    <path d="M116 84L121.1 94.9L133 96.7L124.4 105.1L126.5 117L116 111.3L105.5 117L107.6 105.1L99 96.7L110.9 94.9L116 84Z" fill="#FFD166"/>
  </g>

  <g>
    <text x="238" y="103" fill="#0F172A" font-family="Inter, Segoe UI, Arial, sans-serif" font-size="64" font-weight="800">Travel<tspan fill="#2355D6">AI</tspan></text>
    <text x="242" y="145" fill="#475569" font-family="Inter, Segoe UI, Arial, sans-serif" font-size="24" font-weight="600">Smart trips, clear routes</text>
    <path d="M244 166H504" stroke="#18A7B8" stroke-width="8" stroke-linecap="round"/>
    <path d="M520 166H586" stroke="#FFD166" stroke-width="8" stroke-linecap="round"/>
    <path d="M602 166H644" stroke="#F97316" stroke-width="8" stroke-linecap="round"/>
  </g>
</svg>
